Coordinates
version=1
nRows=43
nColumns=12
inDegrees=yes

Units are S.I. units (second, meters, Newtons, ...)
Angles are in degrees

endheader
time	SC_y	SC_z	SC_x	AC_y	AC_z	AC_x	GH_y	GH_z	GH_yy	EL_x	PS_y
       0.0              -21.45          14.06          28.96          67.99         -1.738          -11.0         -140.5          30.34         -120.8          15.29          51.89
   0.02195              -21.45          14.06          28.95          67.99          -1.74          -11.0         -140.5          30.34         -120.8           15.3           51.9
    0.0439              -21.45          14.06          28.95          67.99         -1.742         -10.99         -140.5          30.33         -120.8           15.3          51.91
   0.06584              -21.45          14.06          28.95          67.99         -1.744         -10.99         -140.5          30.33         -120.7          15.31          51.91
   0.08779              -21.45          14.06          28.94          67.99         -1.746         -10.99         -140.4          30.33         -120.7          15.32          51.92
    0.1097              -21.45          14.06          28.93          67.99         -1.748         -10.99         -140.4          30.33         -120.7          15.32          51.93
    0.1317              -21.45          14.06          28.93          67.99          -1.75         -10.98         -140.4          30.32         -120.7          15.33          51.94
    0.1536              -21.45          14.06          28.92          67.99         -1.753         -10.98         -140.3          30.32         -120.6          15.34          51.95
    0.1756              -21.46          14.07          28.92          67.99         -1.756         -10.97         -140.3          30.32         -120.6          15.34          51.96
    0.1975              -21.46          14.07          28.91          67.99         -1.759         -10.97         -140.3          30.31         -120.6          15.35          51.97
    0.2195              -21.46          14.07           28.9          67.99         -1.762         -10.97         -140.2          30.31         -120.5          15.36          51.98
    0.2414              -21.46          14.07          28.89          67.99         -1.765         -10.96         -140.2           30.3         -120.5          15.37          51.99
    0.2634              -21.46          14.07          28.88           68.0         -1.769         -10.96         -140.1           30.3         -120.5          15.38           52.0
    0.2853              -21.46          14.07          28.87           68.0         -1.773         -10.95         -140.1          30.29         -120.4          15.39          52.02
    0.3073              -21.46          14.07          28.86           68.0         -1.777         -10.94         -140.0          30.29         -120.4           15.4          52.03
    0.3292              -21.47          14.07          28.85           68.0         -1.782         -10.94         -140.0          30.28         -120.3          15.42          52.05
    0.3512              -21.47          14.07          28.84           68.0         -1.787         -10.93         -139.9          30.27         -120.3          15.43          52.07
    0.3731              -21.47          14.07          28.83           68.0         -1.793         -10.92         -139.9          30.26         -120.2          15.44          52.09
    0.3951              -21.47          14.08          28.81           68.0         -1.799         -10.91         -139.8          30.26         -120.1          15.46          52.11
     0.417              -21.48          14.08           28.8           68.0         -1.805          -10.9         -139.7          30.25         -120.1          15.48          52.13
     0.439              -21.48          14.08          28.78           68.0         -1.813         -10.89         -139.6          30.24         -120.0           15.5          52.16
    0.4609              -21.48          14.08          28.76           68.0         -1.821         -10.88         -139.5          30.23         -119.9          15.52          52.19
    0.4829              -21.49          14.08          28.74           68.0          -1.83         -10.87         -139.4          30.21         -119.8          15.55          52.22
    0.5048              -21.49          14.08          28.72           68.0         -1.839         -10.86         -139.3           30.2         -119.7          15.57          52.26
    0.5268               -21.5          14.09          28.69           68.0          -1.85         -10.84         -139.2          30.19         -119.6           15.6          52.29
    0.5487               -21.5          14.09          28.66           68.0         -1.863         -10.82         -139.0          30.17         -119.5          15.64          52.34
    0.5707              -21.51          14.09          28.63           68.0         -1.876          -10.8         -138.9          30.15         -119.3          15.67          52.39
    0.5926              -21.52           14.1          28.59           68.0         -1.892         -10.78         -138.7          30.13         -119.1          15.72          52.44
    0.6145              -21.52           14.1          28.55          68.01         -1.909         -10.76         -138.5           30.1         -119.0          15.76           52.5
    0.6365              -21.53           14.1           28.5          68.01         -1.929         -10.73         -138.2          30.08         -118.8          15.82          52.57
    0.6584              -21.54          14.11          28.45          68.01         -1.951          -10.7         -138.0          30.05         -118.5          15.88          52.65
    0.6804              -21.55          14.12          28.39          68.01         -1.977         -10.66         -137.6          30.01         -118.2          15.95          52.75
    0.7023              -21.57          14.12          28.32          68.01         -2.007         -10.62         -137.3          29.97         -117.9          16.03          52.85
    0.7243              -21.58          14.13          28.23          68.02         -2.041         -10.57         -136.9          29.92         -117.5          16.13          52.98
    0.7462               -21.6          14.14          28.14          68.02         -2.082         -10.51         -136.4          29.87         -117.1          16.24          53.12
    0.7682              -21.62          14.15          28.02          68.02          -2.13         -10.45         -135.8           29.8         -116.6          16.37          53.29
    0.7901              -21.65          14.16          27.89          68.03         -2.187         -10.37         -135.1          29.72         -116.0          16.53           53.5
    0.8121              -21.68          14.18          27.73          68.03         -2.255         -10.27         -134.3          29.63         -115.3          16.72          53.74
     0.834              -21.71           14.2          27.53          68.04         -2.337         -10.15         -133.3          29.52         -114.4          16.94          54.03
     0.856              -21.76          14.22          27.29          68.05         -2.438         -10.01         -132.1          29.38         -113.3          17.22          54.39
    0.8779              -21.81          14.25          26.99          68.06         -2.562         -9.838         -130.6          29.21         -112.0          17.56          54.84
    0.8999              -21.88          14.28          26.62          68.07         -2.717          -9.62         -128.8          28.99         -110.3          17.99          55.39
    0.9218              -21.97          14.33          26.16          68.08         -2.912         -9.345         -126.4          28.72         -108.2          18.52          56.09
